<?xml version="1.0" encoding="UTF-8" standalone="no"?>
<!DOCTYPE svg PUBLIC "-//W3C//DTD SVG 1.1//EN" "http://www.w3.org/Graphics/SVG/1.1/DTD/svg11.dtd">
<svg height="1024.0px" stroke-miterlimit="10" style="fill-rule:nonzero;clip-rule:evenodd;stroke-linecap:round;stroke-linejoin:round;" version="1.1" viewBox="0 0 1024 1024" width="1024.0px" xml:space="preserve" xmlns="http://www.w3.org/2000/svg" xmlns:xlink="http://www.w3.org/1999/xlink">
<defs/>
<g id="Слой-2">
<path d="M419.012 378.14C483.831 442.556 549.874 505.764 613.469 571.389C619.167 577.268 615.398 591.128 607.147 592.814C602.23 593.818 595.788 595.608 592.106 592.199C527.522 532.396 468.387 466.943 405.122 405.746C402.712 403.414 399.046 402.464 395.702 402.216C386.056 401.499 380.677 405.09 375.12 412.673C368.31 421.969 361.772 431.561 356.562 441.84C349.717 455.346 347.112 470.862 345.639 485.932C341.936 523.829 343.773 557.466 364.481 589.669C364.481 557.539 361.835 525.299 364.481 493.278C365.297 483.399 378.396 480.994 385.124 480.994C390.626 480.994 398.43 489.128 398.648 493.278C401.064 539.362 395.757 585.663 398.648 631.719C398.939 636.353 404.207 639.357 407.987 642.054C446.762 669.72 484.497 677.8 531.968 671.237C544.773 669.466 556.534 662.849 569.27 660.634C582.071 658.407 587.925 686.72 569.27 692.823C443.228 734.06 316.225 653.573 309.588 519.207C307.275 472.374 319.999 435.957 345.639 396.834C357.914 378.105 372.392 371.817 392.861 373.314C396.8 373.602 400.962 374.178 405.372 375.01C409.674 375.821 414.212 376.874 419.012 378.14Z" fill="#CDDBD0" fill-rule="nonzero" opacity="1" stroke="none"/>
<path d="M451.694 637.968C452.152 636.979 452.389 635.902 452.389 634.812L452.389 554.024C452.389 552.938 452.153 551.864 451.698 550.877L450.178 547.582C449.713 546.574 449.031 545.682 448.18 544.969L446.215 543.323C445.751 542.933 445.241 542.602 444.696 542.335L442.819 541.415C442.046 541.036 441.215 540.793 440.36 540.696L437.76 540.401C437.219 540.34 436.673 540.337 436.132 540.394L433.203 540.699C432.292 540.794 431.406 541.055 430.589 541.469L428.978 542.284C428.385 542.585 427.835 542.962 427.341 543.407L426.05 544.571L425.23 545.311C424.685 545.802 424.215 546.37 423.834 546.998L423.834 546.998C423.13 548.16 422.754 549.491 422.747 550.85L422.263 636.761C422.256 637.98 422.546 639.183 423.107 640.265L423.959 641.907C424.257 642.481 424.627 643.014 425.061 643.492L427.557 646.246C427.908 646.633 428.298 646.983 428.722 647.289L429.854 648.108C431.135 649.034 432.676 649.533 434.258 649.533L439.283 649.533C440.825 649.533 442.329 649.059 443.592 648.175L444.938 647.233C445.322 646.964 445.681 646.659 446.009 646.323L448.573 643.693C449.168 643.083 449.655 642.376 450.013 641.602L451.694 637.968Z" fill="#CDDBD0" fill-opacity="0.984234" fill-rule="nonzero" opacity="1" stroke="#CDDBD0" stroke-linecap="butt" stroke-linejoin="round" stroke-width="0.01"/>
<path d="M571.865 481.136C572.118 480.245 572.246 479.324 572.246 478.398L572.246 384.827C572.246 384.116 572.171 383.407 572.021 382.712L571.802 381.699C571.245 379.116 569.691 376.857 567.477 375.413L566.678 374.892C566.034 374.472 565.343 374.127 564.62 373.865L561.657 372.79C560.938 372.529 560.191 372.351 559.432 372.26L557.415 372.018C556.628 371.923 555.832 371.922 555.045 372.015L553.02 372.254C552.215 372.349 551.423 372.541 550.664 372.827L548.608 373.6C547.45 374.036 546.382 374.682 545.459 375.506L544.072 376.744C543.387 377.356 542.789 378.06 542.295 378.834L542.295 378.834C541.268 380.445 540.723 382.316 540.723 384.226L540.723 477.423C540.723 478.982 541.086 480.519 541.784 481.913L542.31 482.964C542.793 483.93 543.429 484.811 544.193 485.573L546.015 487.392C546.573 487.95 547.195 488.439 547.868 488.851L547.893 488.866C549.254 489.698 550.794 490.194 552.385 490.312L554.125 490.441L556.291 490.601C556.797 490.638 557.304 490.638 557.81 490.598L559.74 490.448L562.029 490.27C563.201 490.179 564.348 489.882 565.418 489.394L565.729 489.252C567.197 488.581 568.482 487.567 569.474 486.294L569.729 485.966C570.524 484.946 571.114 483.783 571.467 482.539L571.865 481.136Z" fill="#CDDBD0" fill-opacity="0.984234" fill-rule="nonzero" opacity="1" stroke="#CDDBD0" stroke-linecap="butt" stroke-linejoin="round" stroke-width="0.01"/>
<path d="M403.515 339.696C394.889 356.262 405.117 370.031 424.833 363.706C427.052 362.994 429.558 361.706 431.702 360.793C442.542 356.178 472.241 349.816 483.503 347.024C485.116 346.624 467.015 346.1 469.532 346.1C478.329 346.1 489.119 341.461 499.128 342.173C516.921 343.439 530.218 343.639 551.734 352.926C563.844 358.153 575.926 363.159 584.55 367.135C594.83 371.875 594.83 375.033 594.83 382.296C594.83 432.683 591.219 483.097 592.886 533.455C593.477 551.298 625.888 550.178 626.714 537.139C629.189 498.058 626.714 458.82 626.714 419.66C654.869 477.544 666.034 541.302 626.714 598.307C618.788 609.797 608.636 627.515 594.83 625.454C591.432 624.946 588.003 623.37 585.552 620.961C523.204 559.667 463.099 496.121 400.837 434.739C397.082 431.037 385.046 433.089 382.629 434.739C376.557 438.883 372.454 451.198 378.422 457.563C439.837 523.066 503.339 586.607 567.392 649.533C579.178 661.113 607.395 658.874 619.897 652.829C642.544 641.88 658.59 619.787 668.461 595.837C670.606 590.634 672.832 585.04 674.941 579.548C677.369 573.221 679.641 567.029 681.45 561.726C692.464 529.44 685.853 489.456 677.991 457.563C648.77 339.035 520.449 278.494 403.515 339.696Z" fill="#CDDBD0" fill-rule="nonzero" opacity="1" stroke="#CDDBD0" stroke-linecap="butt" stroke-linejoin="round" stroke-width="0.01"/>
<path d="M456.119 349.308C474.053 344.85 493.52 334.042 512 334.042C531.442 334.042 550.845 339.893 568.772 347.418C582.435 353.153 595.551 361.733 605.054 373.102C608.843 377.633 605.054 384.914 605.054 390.821C578.929 372.519 549.778 348.959 515.942 347.418C498.836 346.639 485.005 347.246 467.878 347.39C465.753 347.408 458.242 349.308 456.119 349.308Z" fill="#CDDBD0" fill-rule="nonzero" opacity="1" stroke="none"/>
<path d="M417.716 378.072C400.536 360.992 376.691 370.156 359.111 381.476C388.414 379.774 388.414 379.774 417.716 378.072Z" fill="#CDDBD0" fill-rule="nonzero" opacity="1" stroke="none"/>
</g>
</svg>