<svg width="38" height="43" viewBox="0 0 38 43" fill="none" xmlns="http://www.w3.org/2000/svg">
<path d="M36.4497 18.8068L4.53358 0.395053C3.99523 0.0887479 3.37732 -0.0444887 2.76216 0.013094C2.147 0.0706767 1.5638 0.316345 1.09027 0.717368C0.616731 1.11839 0.275342 1.65573 0.111579 2.2578C-0.0521835 2.85986 -0.0305437 3.49807 0.173616 4.08739L5.99261 21.495L0.173616 38.9044C0.0116749 39.3677 -0.0379678 39.8635 0.0288526 40.3501C0.0956731 40.8368 0.277008 41.3002 0.557641 41.7014C0.838274 42.1025 1.21002 42.4299 1.64168 42.6558C2.07335 42.8818 2.55234 42.9998 3.03847 43C3.56661 42.9989 4.08552 42.86 4.54498 42.5968L36.4459 24.1543C36.9164 23.8879 37.3084 23.4997 37.5815 23.0297C37.8546 22.5597 37.999 22.0246 38 21.4795C38.001 20.9344 37.8584 20.3989 37.587 19.9278C37.3155 19.4568 36.925 19.0673 36.4554 18.7991L36.4497 18.8068ZM3.03847 39.9279C3.03928 39.9202 3.03928 39.9125 3.03847 39.9048L8.68838 23.031H19.7564C20.1595 23.031 20.5461 22.8692 20.8311 22.5811C21.1161 22.2931 21.2762 21.9023 21.2762 21.495C21.2762 21.0876 21.1161 20.6969 20.8311 20.4088C20.5461 20.1207 20.1595 19.9589 19.7564 19.9589H8.68838L3.04987 3.09278C3.048 3.08191 3.04413 3.07149 3.03847 3.06206L34.9546 21.4623L3.03847 39.9279Z" fill="#5E4642"/>
</svg>
